<svg viewBox="0 0 812 375" xmlns="http://www.w3.org/2000/svg" fill-rule="evenodd" clip-rule="evenodd" stroke-linecap="round" stroke-linejoin="round" stroke-miterlimit="1.5">
    <g>
    <g id="Bat">
        <g id="left" stroke="#000">
            <path d="M407 118.759s-49.742 22.094-73.648 7.43c-23.905-14.664-68.945-81.967-68.945-81.967H2.186S112.93 69.847 162.988 146.077c35.835 54.572-2.108 100.061-2.092 100.059C363.173 217.882 407 330.778 407 330.778"/>
            <path d="M378.414 125.333c-1.96-24.451-.707-49.17 2.958-74.089 11.468 27.093 15.947 44.486 13.101 51.713"/>
        </g>
        <g id="right">
            <path d="M405 119.701s49.742 21.152 73.648 6.488c23.905-14.664 68.945-81.967 68.945-81.967h262.221S699.07 69.847 649.012 146.077c-35.835 54.572 2.108 100.061 2.092 100.059C448.827 217.882 405 330.778 405 330.778" stroke="#000"/>
            <ellipse cx="406" cy="132.333" rx="30.194" ry="52.21"/>
            <path d="M433.657 125.333c1.96-24.451.707-49.17-2.958-74.089-11.468 27.093-15.947 44.486-13.101 51.713" stroke="#000"/>
        </g>
    </g>
    <g id="Glasses" fill="#fff" stroke="#000" stroke-width="5">
        <path d="M406.039 101.64c-12.857-3.562-22.988-4.484-30-.977.632 6.879 1.872 13.15 3.692 18.84 7.242 1.481 14.484 1.744 21.727.591a1.303 1.303 0 001.015-.836c2.257-6.13 3.326-11.421 3.566-17.618zM406.039 101.64c12.857-3.562 22.988-4.484 30-.977-.632 6.879-1.871 13.15-3.691 18.84-7.243 1.481-14.485 1.744-21.727.591a1.303 1.303 0 01-1.016-.836c-2.257-6.13-3.326-11.421-3.566-17.618z"/>
    </g>
    </g>
</svg>
